Coordinates
version=1
nRows=24
nColumns=24
inDegrees=yes

Units are S.I. units (second, meters, Newtons, ...)
Angles are in degrees.

endheader
time	pelvis_tilt	pelvis_list	pelvis_rotation	pelvis_tx	pelvis_ty	pelvis_tz	hip_flexion_r	hip_adduction_r	hip_rotation_r	knee_angle_r	ankle_angle_r	subtalar_angle_r	mtp_angle_r	hip_flexion_l	hip_adduction_l	hip_rotation_l	knee_angle_l	ankle_angle_l	subtalar_angle_l	mtp_angle_l	lumbar_extension	lumbar_bending	lumbar_rotation
      2.04500000	      7.95362092	      1.31528260	      6.90144244	      0.54891803	      1.01166207	      0.03852557	     -0.20865787	      1.21461976	    -22.09117447	    -15.16779707	      0.19140314	     10.37887935	      6.50126013	      2.08430312	     -6.75491800	     -9.75807144	    -50.03136664	     -4.39225413	     -9.55014720	     16.82495063	    -16.43918408	     -6.19302181	    -27.81844157
      2.05000000	      8.01266570	      1.33955803	      6.61299714	      0.55508703	      1.01262136	      0.03891934	     -0.85200095	      1.29230587	    -22.00102659	    -14.76276126	      0.26276711	     10.68992382	      6.42953039	      2.47491411	     -6.58417306	     -9.94877791	    -49.21221138	     -3.92053377	     -9.34391675	     16.88725339	    -16.42738773	     -6.27555871	    -27.54529709
      2.05500000	      8.07196640	      1.35979274	      6.31448132	      0.56124287	      1.01351999	      0.03932799	     -1.48603320	      1.36846539	    -21.89031366	    -14.37424460	      0.33380926	     10.97320686	      6.34435193	      2.85002688	     -6.42236286	    -10.16857518	    -48.34095817	     -3.48742226	     -9.16389964	     16.93944761	    -16.41510077	     -6.35927956	    -27.26805221
      2.06000000	      8.12799868	      1.36858407	      6.01503639	      0.56738594	      1.01433053	      0.03974762	     -2.10919533	      1.45316841	    -21.76996538	    -13.99337480	      0.40747953	     11.22235450	      6.26593959	      3.22305010	     -6.28018391	    -10.41302871	    -47.43748025	     -3.09699750	     -9.01472599	     16.98352058	    -16.39720592	     -6.43573714	    -26.99842460
      2.06500000	      8.18128228	      1.37997914	      5.70768332	      0.57350131	      1.01509185	      0.04016149	     -2.72207316	      1.52621336	    -21.61568656	    -13.62412872	      0.49159727	     11.46785271	      6.17494555	      3.58390350	     -6.13408115	    -10.66653309	    -46.48361952	     -2.76861466	     -8.87852581	     17.01800288	    -16.37780570	     -6.51472742	    -26.70818958
      2.07000000	      8.23178231	      1.38330288	      5.40261417	      0.57960172	      1.01576774	      0.04058423	     -3.32502079	      1.60337923	    -21.44434543	    -13.26581410	      0.58200698	     11.68774846	      6.08566743	      3.94098822	     -6.00199000	    -10.93524311	    -45.50082732	     -2.47941876	     -8.77707597	     17.04459841	    -16.35473483	     -6.59089443	    -26.42944996
      2.07500000	      8.28299863	      1.37943014	      5.08898231	      0.58567518	      1.01637244	      0.04102010	     -3.92003892	      1.68138238	    -21.24806713	    -12.91986790	      0.68736800	     11.89958381	      5.98116486	      4.28738583	     -5.88324978	    -11.22767357	    -44.48467687	     -2.24972416	     -8.69541985	     17.06128804	    -16.33270729	     -6.66284774	    -26.13283247
      2.08000000	      8.32196172	      1.36642759	      4.77489783	      0.59173530	      1.01689352	      0.04145454	     -4.49611951	      1.76121359	    -21.03009499	    -12.58222949	      0.80065315	     12.09029496	      5.85711192	      4.63899081	     -5.77851230	    -11.53640340	    -43.44133544	     -2.07147940	     -8.64772889	     17.06777529	    -16.29520281	     -6.72646232	    -25.83320331
      2.08500000	      8.36217353	      1.35075816	      4.46280823	      0.59776488	      1.01733649	      0.04188182	     -5.06806318	      1.83810606	    -20.79383902	    -12.25114298	      0.92438008	     12.26272928	      5.72982921	      4.98286757	     -5.68029023	    -11.86482913	    -42.37725870	     -1.93303724	     -8.63493086	     17.06521811	    -16.26347585	     -6.78928597	    -25.54693240
      2.09000000	      8.39701271	      1.32289406	      4.14947083	      0.60377802	      1.01770079	      0.04231835	     -5.62844880	      1.92174014	    -20.54072511	    -11.92859538	      1.05191500	     12.42189231	      5.60080480	      5.32494950	     -5.60066807	    -12.21303304	    -41.28938910	     -1.84052909	     -8.65061597	     17.05291929	    -16.22532413	     -6.84406357	    -25.25562552
      2.09500000	      8.42147897	      1.28914891	      3.84415249	      0.60975716	      1.01797481	      0.04274198	     -6.17401755	      2.00515882	    -20.26267093	    -11.60838164	      1.18561845	     12.57580836	      5.49343659	      5.67589626	     -5.52660487	    -12.55405526	    -40.18707289	     -1.78700474	     -8.68756291	     17.03269089	    -16.18006213	     -6.89450812	    -24.98164086
      2.10000000	      8.44522369	      1.25526475	      3.51401111	      0.61574307	      1.01817875	      0.04319353	     -6.70614756	      2.07700358	    -19.99119556	    -11.32017409	      1.34466650	     12.70420930	      5.33618441	      6.01015679	     -5.46834016	    -12.98793070	    -39.06208992	     -1.78752883	     -8.74527904	     16.99659867	    -16.12844812	     -6.94887934	    -24.67190544
      2.10500000	      8.46736360	      1.20114791	      3.20418348	      0.62165492	      1.01830148	      0.04362996	     -7.23198032	      2.17128243	    -19.63727802	    -11.05228495	      1.82359619	     12.81758072	      3.10385333	      6.35476758	     -5.42884394	    -13.38744736	    -37.94166239	     -1.76233935	     -8.78288088	     16.77418847	    -16.08675875	     -6.98121026	    -24.39256402
      2.11000000	      8.48174354	      1.13270489	      2.91870137	      0.62758748	      1.01834293	      0.04401117	     -7.75384637	      2.26947076	    -19.38201513	    -10.75614125	      1.94822283	     13.03316223	      3.11027337	      6.70363702	     -5.40704071	    -13.79045079	    -36.80170303	     -1.86393054	     -8.83270098	     16.73639568	    -16.03367163	     -6.98968433	    -24.12474155
      2.11500000	      8.49269494	      1.08142665	      2.60363251	      0.63351848	      1.01830270	      0.04441991	     -8.26200593	      2.33896520	    -19.11017762	    -10.48606066	      2.11323730	     13.16410165	      3.10324535	      7.03841308	     -5.37319974	    -14.27279958	    -35.64943743	     -1.94183058	     -8.90526531	     16.68735632	    -15.97669343	     -7.02705055	    -23.83939109
      2.12000000	      8.50247539	      1.00944576	      2.30597390	      0.63940638	      1.01818210	      0.04480620	     -8.76584944	      2.42761240	    -18.81513696	    -10.21589141	      2.28014371	     13.27630020	      3.08195744	      7.37912443	     -5.36255378	    -14.74699132	    -34.49909536	     -2.05135008	     -8.94339746	     16.62161376	    -15.92477378	     -7.03951685	    -23.56902980
      2.12500000	      8.51002398	      0.93250099	      2.01210310	      0.64528735	      1.01798704	      0.04519055	     -9.26522355	      2.51569755	    -18.52693823	     -9.95182886	      2.45453367	     13.39603509	      3.05913970	      7.71696127	     -5.36177423	    -15.25166712	    -33.34423576	     -2.18846584	     -8.95220665	     16.54099444	    -15.87362576	     -7.04727552	    -23.30519147
      2.13000000	      8.51234878	      0.84715906	      1.72482554	      0.65115959	      1.01771724	      0.04554970	     -9.75445632	      2.60596490	    -18.24458604	     -9.69983934	      2.63716005	     13.51701502	      3.03501125	      8.05737480	     -5.37071245	    -15.77701790	    -32.18890356	     -2.34209552	     -8.92679070	     16.44712191	    -15.81753981	     -7.04462173	    -23.04478715
      2.13500000	      8.50649094	      0.75779975	      1.43438213	      0.65701510	      1.01737504	      0.04589100	    -10.22915653	      2.69102180	    -17.95031615	     -9.45969110	      2.83790612	     13.63190356	      2.99245341	      8.40057371	     -5.38332440	    -16.32783101	    -31.03061697	     -2.49461614	     -8.85849673	     16.31722470	    -15.75453635	     -7.03443050	    -22.77666253
      2.14000000	      8.50656335	      0.65708195	      1.16370856	      0.66286625	      1.01697057	      0.04621823	    -10.70836547	      2.78750969	    -17.68843565	     -9.22846178	      3.03630187	     13.75965530	      2.96028351	      8.73726830	     -5.41074372	    -16.89742032	    -29.87432893	     -2.67501811	     -8.73278988	     16.18514130	    -15.70302267	     -7.01427742	    -22.53409458
      2.14500000	      8.49814618	      0.55429062	      0.88908578	      0.66871900	      1.01648551	      0.04652877	    -11.17350748	      2.87592851	    -17.42270809	     -9.01049294	      3.25023570	     13.89043395	      2.92878176	      9.07734710	     -5.44107428	    -17.50092676	    -28.72186817	     -2.84773653	     -8.55317121	     16.03473321	    -15.64273325	     -6.99239711	    -22.28720516
      2.15000000	      8.49129819	      0.44642201	      0.61708426	      0.67456086	      1.01595193	      0.04681702	    -11.63519038	      2.96320854	    -17.16312958	     -8.80490013	      3.46953512	     14.02299808	      2.89737307	      9.40914362	     -5.47555293	    -18.13116039	    -27.56661806	     -3.02360257	     -8.31039237	     15.86468785	    -15.58835549	     -6.96103277	    -22.04214756
      2.15500000	      8.47298582	      0.31466339	      0.35274804	      0.68036237	      1.01534011	      0.04711115	    -12.07637691	      3.07657030	    -16.84682273	     -8.61732796	      3.77114435	     14.04309234	      2.41699812	      9.76032287	     -5.53953465	    -18.78156671	    -26.44335237	     -3.04727339	     -7.88175398	     14.63912005	    -15.52964557	     -6.90772698	    -21.82011686
      2.16000000	      8.45250091	      0.20418754	      0.09559281	      0.68620978	      1.01467510	      0.04732795	    -12.51251994	      3.15075299	    -16.65109979	     -8.44373090	      3.99471279	     14.27648517	      2.42787494	     10.09557875	     -5.56813873	    -19.44982269	    -25.28339616	     -3.24484822	     -7.54423106	     14.57369624	    -15.46272524	     -6.86691008	    -21.57387748
